<mxfile host="Electron" agent="Mozilla/5.0 (Windows NT 10.0; Win64; x64) AppleWebKit/537.36 (KHTML, like Gecko) draw.io/24.7.5 Chrome/126.0.6478.183 Electron/31.3.0 Safari/537.36" version="24.7.5" pages="2">
  <diagram id="P6rdNtYefLtcvrvBVHJF" name="Page-1">
    <mxGraphModel dx="1143" dy="1690" grid="1" gridSize="10" guides="1" tooltips="1" connect="1" arrows="1" fold="1" page="1" pageScale="1" pageWidth="850" pageHeight="1100" math="0" shadow="0">
      <root>
        <mxCell id="0" />
        <mxCell id="1" parent="0" />
        <UserObject label="Link to Page 2" link="data:page/id,V78gUy14vuqNf2KqQPiY" id="SeQ7eo3qc6pXgUe3pyst-1">
          <mxCell style="rounded=1;whiteSpace=wrap;html=1;" parent="1" vertex="1">
            <mxGeometry x="360" y="490" width="120" height="60" as="geometry" />
          </mxCell>
        </UserObject>
        <object label="Link to compressed first page" link="data:page/name,compressed.drawio#Page-1" id="SeQ7eo3qc6pXgUe3pyst-2">
          <mxCell style="rounded=1;whiteSpace=wrap;html=1;" parent="1" vertex="1">
            <mxGeometry x="360" y="570" width="120" height="60" as="geometry" />
          </mxCell>
        </object>
        <object label="Link to compressed second page" link="data:page/name,compressed.drawio#Page+2" id="SeQ7eo3qc6pXgUe3pyst-3">
          <mxCell style="rounded=1;whiteSpace=wrap;html=1;" parent="1" vertex="1">
            <mxGeometry x="360" y="650" width="120" height="60" as="geometry" />
          </mxCell>
        </object>
        <mxCell id="7KSC1_O8d7ACaxm1iSCq-1" value="Linked" style="rounded=1;whiteSpace=wrap;html=1;" parent="1" vertex="1">
          <mxGeometry x="520" y="800" width="120" height="60" as="geometry" />
        </mxCell>
        <UserObject label="Link to Linked on this page" link="data:element/id,7KSC1_O8d7ACaxm1iSCq-1" id="7KSC1_O8d7ACaxm1iSCq-2">
          <mxCell style="rounded=1;whiteSpace=wrap;html=1;" parent="1" vertex="1">
            <mxGeometry x="360" y="800" width="120" height="60" as="geometry" />
          </mxCell>
        </UserObject>
        <UserObject label="Link to Linked on Page 2" link="data:element/name,name,Page+2/Linked" id="7KSC1_O8d7ACaxm1iSCq-3">
          <mxCell style="rounded=1;whiteSpace=wrap;html=1;" parent="1" vertex="1">
            <mxGeometry x="360" y="880" width="120" height="60" as="geometry" />
          </mxCell>
        </UserObject>
        <object label="Link to linked on compressed second page" link="data:element/name,compressed.drawio#name,Page+2/Linked" id="mMpU9tbrD95g1tfM9Yg_-1">
          <mxCell style="rounded=1;whiteSpace=wrap;html=1;" parent="1" vertex="1">
            <mxGeometry x="360" y="960" width="120" height="60" as="geometry" />
          </mxCell>
        </object>
      </root>
    </mxGraphModel>
  </diagram>
  <diagram id="V78gUy14vuqNf2KqQPiY" name="Page 2">
    <mxGraphModel dx="1143" dy="1690" grid="1" gridSize="10" guides="1" tooltips="1" connect="1" arrows="1" fold="1" page="1" pageScale="1" pageWidth="850" pageHeight="1100" math="0" shadow="0">
      <root>
        <mxCell id="0" />
        <mxCell id="1" parent="0" />
        <mxCell id="rfbrq5UK7CsUpx84LqN7-1" value="Circle" style="ellipse;whiteSpace=wrap;html=1;aspect=fixed;" parent="1" vertex="1">
          <mxGeometry x="380" y="480" width="80" height="80" as="geometry" />
        </mxCell>
        <mxCell id="z41qLrv9LLXxquu2maV1-1" value="Linked" style="rounded=1;whiteSpace=wrap;html=1;" parent="1" vertex="1">
          <mxGeometry x="360" y="590" width="120" height="60" as="geometry" />
        </mxCell>
        <UserObject label="Link to Page 1" link="data:page/id,P6rdNtYefLtcvrvBVHJF" id="9wm5KR0eQgtPcjNLXgEd-1">
          <mxCell style="rounded=1;whiteSpace=wrap;html=1;" parent="1" vertex="1">
            <mxGeometry x="360" y="830" width="120" height="60" as="geometry" />
          </mxCell>
        </UserObject>
        <UserObject label="Link to Linked on Page 1" link="data:element/name,id,P6rdNtYefLtcvrvBVHJF/Linked" id="9wm5KR0eQgtPcjNLXgEd-2">
          <mxCell style="rounded=1;whiteSpace=wrap;html=1;" parent="1" vertex="1">
            <mxGeometry x="360" y="920" width="120" height="60" as="geometry" />
          </mxCell>
        </UserObject>
      </root>
    </mxGraphModel>
  </diagram>
</mxfile>
